<svg xmlns="http://www.w3.org/2000/svg" viewBox="0 0 500 900" font-family="Segoe UI, Arial, sans-serif">
  <rect width="500" height="900" fill="#f8f9fa"/>

  <text x="250" y="30" text-anchor="middle" font-size="15" font-weight="bold" fill="#1565c0">Flujo: Generar Contrasena</text>

  <ellipse cx="250" cy="65" rx="55" ry="20" fill="#c8e6c9" stroke="#2e7d32" stroke-width="2"/>
  <text x="250" y="70" text-anchor="middle" font-size="11" font-weight="bold">INICIO</text>

  <line x1="250" y1="85" x2="250" y2="115" stroke="#333" stroke-width="2"/>
  <polygon points="245,110 250,120 255,110" fill="#333"/>

  <rect x="150" y="120" width="200" height="40" rx="5" fill="#e3f2fd" stroke="#1565c0" stroke-width="1.5"/>
  <text x="250" y="144" text-anchor="middle" font-size="11">Leer parametros</text>

  <line x1="250" y1="160" x2="250" y2="190" stroke="#333" stroke-width="2"/>
  <polygon points="245,185 250,195 255,185" fill="#333"/>

  <!-- Decision: longitud valida? -->
  <polygon points="250,225 370,275 250,325 130,275" fill="#fff9c4" stroke="#f57f17" stroke-width="2"/>
  <text x="250" y="272" text-anchor="middle" font-size="11" font-weight="bold">8 &lt;= long &lt;= 32?</text>

  <line x1="370" y1="275" x2="430" y2="275" stroke="#333" stroke-width="2"/>
  <polygon points="425,270 435,275 425,280" fill="#333"/>
  <text x="400" y="268" text-anchor="middle" font-size="10" fill="#c62828">No</text>

  <rect x="410" y="255" width="80" height="40" rx="5" fill="#fce4ec" stroke="#c62828" stroke-width="1.5"/>
  <text x="450" y="279" text-anchor="middle" font-size="10">Mostrar</text>
  <text x="450" y="291" text-anchor="middle" font-size="10">Error</text>

  <line x1="450" y1="295" x2="450" y2="780" stroke="#333" stroke-width="2"/>
  <line x1="130" y1="275" x2="80" y2="275" stroke="#333" stroke-width="2"/>
  <text x="105" y="268" text-anchor="middle" font-size="10" fill="#2e7d32">Si</text>

  <!-- Decision: selecciono al menos 1? -->
  <polygon points="250,360 370,410 250,460 130,410" fill="#fff9c4" stroke="#f57f17" stroke-width="2"/>
  <text x="250" y="407" text-anchor="middle" font-size="11" font-weight="bold">Al menos 1 tipo</text>
  <text x="250" y="420" text-anchor="middle" font-size="11" font-weight="bold">seleccionado?</text>

  <line x1="130" y1="410" x2="80" y2="410" stroke="#333" stroke-width="2"/>
  <text x="105" y="403" text-anchor="middle" font-size="10" fill="#c62828">No</text>

  <rect x="20" y="390" width="80" height="40" rx="5" fill="#fce4ec" stroke="#c62828" stroke-width="1.5"/>
  <text x="60" y="414" text-anchor="middle" font-size="10">Mostrar</text>
  <text x="60" y="426" text-anchor="middle" font-size="10">Error</text>

  <line x1="60" y1="430" x2="60" y2="780" stroke="#333" stroke-width="2"/>

  <line x1="370" y1="410" x2="430" y2="410" stroke="#333" stroke-width="2"/>
  <polygon points="425,405 435,410 425,415" fill="#333"/>
  <text x="400" y="403" text-anchor="middle" font-size="10" fill="#2e7d32">Si</text>

  <rect x="380" y="390" width="100" height="40" rx="5" fill="#e3f2fd" stroke="#1565c0" stroke-width="1.5"/>
  <text x="430" y="414" text-anchor="middle" font-size="10">Armar pool</text>
  <text x="430" y="426" text-anchor="middle" font-size="10">de caracteres</text>

  <line x1="430" y1="430" x2="430" y2="490" stroke="#333" stroke-width="2"/>
  <line x1="430" y1="490" x2="250" y2="490" stroke="#333" stroke-width="2"/>
  <polygon points="255,485 245,490 255,495" fill="#333"/>

  <rect x="155" y="500" width="190" height="35" rx="5" fill="#e3f2fd" stroke="#1565c0" stroke-width="1.5"/>
  <text x="250" y="522" text-anchor="middle" font-size="11">Garantizar 1 de cada tipo</text>

  <line x1="250" y1="535" x2="250" y2="565" stroke="#333" stroke-width="2"/>
  <polygon points="245,560 250,570 255,560" fill="#333"/>

  <!-- Bucle while -->
  <polygon points="250,595 370,645 250,695 130,645" fill="#e8f5e9" stroke="#2e7d32" stroke-width="2"/>
  <text x="250" y="642" text-anchor="middle" font-size="11" font-weight="bold">len(req) &lt; long?</text>

  <line x1="370" y1="645" x2="430" y2="645" stroke="#333" stroke-width="2"/>
  <polygon points="425,640 435,645 425,650" fill="#333"/>
  <text x="400" y="638" text-anchor="middle" font-size="10">No</text>

  <line x1="130" y1="645" x2="80" y2="645" stroke="#333" stroke-width="2"/>
  <text x="105" y="638" text-anchor="middle" font-size="10" fill="#2e7d32">Si</text>

  <rect x="20" y="625" width="80" height="40" rx="5" fill="#c8e6c9" stroke="#2e7d32" stroke-width="1.5"/>
  <text x="60" y="649" text-anchor="middle" font-size="10">Agregar</text>
  <text x="60" y="661" text-anchor="middle" font-size="10">caracter</text>

  <line x1="60" y1="665" x2="60" y2="720" stroke="#333" stroke-width="2"/>
  <line x1="60" y1="720" x2="250" y2="720" stroke="#333" stroke-width="2"/>
  <line x1="250" y1="720" x2="250" y2="695" stroke="#333" stroke-width="2"/>
  <polygon points="245,700 250,690 255,700" fill="#333"/>

  <!-- Fisher-Yates -->
  <rect x="150" y="730" width="200" height="35" rx="5" fill="#e3f2fd" stroke="#1565c0" stroke-width="1.5"/>
  <text x="250" y="752" text-anchor="middle" font-size="11">Mezclar (Fisher-Yates)</text>

  <line x1="250" y1="765" x2="250" y2="795" stroke="#333" stroke-width="2"/>
  <polygon points="245,790 250,800 255,790" fill="#333"/>

  <rect x="155" y="800" width="190" height="35" rx="5" fill="#e3f2fd" stroke="#1565c0" stroke-width="1.5"/>
  <text x="250" y="822" text-anchor="middle" font-size="11">Devolver contrasena</text>

  <line x1="250" y1="835" x2="250" y2="855" stroke="#333" stroke-width="2"/>
  <ellipse cx="250" cy="880" rx="55" ry="20" fill="#c8e6c9" stroke="#2e7d32" stroke-width="2"/>
  <text x="250" y="885" text-anchor="middle" font-size="11" font-weight="bold">FIN</text>
</svg>